<svg xmlns="http://www.w3.org/2000/svg" viewBox="0 0 100 100" width="100" height="100">
  <!-- Yellow background circle -->
  <circle cx="50" cy="50" r="45" fill="#FFD54F"/>
  
  <!-- Cat body (white circle) -->
  <circle cx="50" cy="52" r="22" fill="white" stroke="#333" stroke-width="2"/>
  
  <!-- Cat ears -->
  <polygon points="35,35 42,25 49,35" fill="white" stroke="#333" stroke-width="2" stroke-linejoin="round"/>
  <polygon points="51,35 58,25 65,35" fill="white" stroke="#333" stroke-width="2" stroke-linejoin="round"/>
  
  <!-- Inner ear -->
  <polygon points="38,32 42,27 46,32" fill="#FFB3BA"/>
  <polygon points="54,32 58,27 62,32" fill="#FFB3BA"/>
  
  <!-- Eyes -->
  <circle cx="44" cy="47" r="2" fill="#333"/>
  <circle cx="56" cy="47" r="2" fill="#333"/>
  
  <!-- Eye highlights -->
  <circle cx="44.5" cy="46.5" r="0.8" fill="white"/>
  <circle cx="56.5" cy="46.5" r="0.8" fill="white"/>
  
  <!-- Nose -->
  <polygon points="50,51 48,53 52,53" fill="#333"/>
  
  <!-- Mouth -->
  <path d="M 50 53 Q 47 56 44 54" fill="none" stroke="#333" stroke-width="1.5" stroke-linecap="round"/>
  <path d="M 50 53 Q 53 56 56 54" fill="none" stroke="#333" stroke-width="1.5" stroke-linecap="round"/>
  
  <!-- Whiskers -->
  <line x1="30" y1="48" x2="38" y2="50" stroke="#333" stroke-width="1.5" stroke-linecap="round"/>
  <line x1="32" y1="52" x2="38" y2="53" stroke="#333" stroke-width="1.5" stroke-linecap="round"/>
  <line x1="62" y1="50" x2="70" y2="48" stroke="#333" stroke-width="1.5" stroke-linecap="round"/>
  <line x1="62" y1="53" x2="68" y2="52" stroke="#333" stroke-width="1.5" stroke-linecap="round"/>
  
  <!-- Paws/arms -->
  <ellipse cx="38" cy="65" rx="4" ry="6" fill="white" stroke="#333" stroke-width="2"/>
  <ellipse cx="62" cy="65" rx="4" ry="6" fill="white" stroke="#333" stroke-width="2"/>
  
  <!-- Tail -->
  <path d="M 25 60 Q 20 55 22 45" fill="none" stroke="#333" stroke-width="3" stroke-linecap="round"/>
</svg>