<svg width="100" height="100" viewBox="0 0 100 100" fill="none" xmlns="http://www.w3.org/2000/svg">
  <!-- Green background circle -->
  <circle cx="50" cy="50" r="45" fill="#10B981"/>
  
  <!-- Cat body -->
  <ellipse cx="50" cy="55" rx="22" ry="18" fill="white" stroke="#000" stroke-width="2"/>
  
  <!-- Cat head -->
  <circle cx="50" cy="40" r="16" fill="white" stroke="#000" stroke-width="2"/>
  
  <!-- Cat ears -->
  <path d="M37 30 L42 22 L47 30 Z" fill="white" stroke="#000" stroke-width="2"/>
  <path d="M53 30 L58 22 L63 30 Z" fill="white" stroke="#000" stroke-width="2"/>
  
  <!-- Inner ears -->
  <path d="M40 28 L42 24 L44 28 Z" fill="#FFC0CB"/>
  <path d="M56 28 L58 24 L60 28 Z" fill="#FFC0CB"/>
  
  <!-- Eyes -->
  <circle cx="45" cy="38" r="2" fill="#000"/>
  <circle cx="55" cy="38" r="2" fill="#000"/>
  <circle cx="45.5" cy="37.5" r="0.5" fill="white"/>
  <circle cx="55.5" cy="37.5" r="0.5" fill="white"/>
  
  <!-- Nose -->
  <path d="M48 42 L50 44 L52 42 Z" fill="#FFC0CB"/>
  
  <!-- Mouth -->
  <path d="M50 44 Q47 46 45 44" stroke="#000" stroke-width="1.5" fill="none" stroke-linecap="round"/>
  <path d="M50 44 Q53 46 55 44" stroke="#000" stroke-width="1.5" fill="none" stroke-linecap="round"/>
  
  <!-- Heart on chest -->
  <path d="M50 50 C48 48 45 48 45 51 C45 48 42 48 40 50 C40 53 45 58 50 62 C55 58 60 53 60 50 C58 48 55 48 55 51 C55 48 52 48 50 50 Z" fill="#EF4444"/>
  
  <!-- Paws -->
  <ellipse cx="42" cy="68" rx="4" ry="3" fill="white" stroke="#000" stroke-width="1.5"/>
  <ellipse cx="58" cy="68" rx="4" ry="3" fill="white" stroke="#000" stroke-width="1.5"/>
  
  <!-- Tail -->
  <path d="M72 50 Q75 45 70 40 Q65 45 68 50" stroke="#000" stroke-width="2" fill="white"/>
</svg>